<svg xmlns="http://www.w3.org/2000/svg" viewBox="0 0 966 456.34"><defs><style>.cls-1{fill:#2d3b76;}.cls-2{fill:#d1e8e2;}.cls-3,.cls-4{fill:#fff;}.cls-3{opacity:0.15;}.cls-4{opacity:0.12;}.cls-5{fill:#f7941d;stroke:#231f20;stroke-miterlimit:10;stroke-width:0.34px;}.cls-6{fill:#72461c;opacity:0.89;}</style></defs><g id="Layer_2" data-name="Layer 2"><g id="Layer_1-2" data-name="Layer 1"><path class="cls-1" d="M958.43,100.38a9.17,9.17,0,0,1,2,17.48l-16.64,7L619,261.72l-33.76,14a33.92,33.92,0,0,1-20.15,1.84L7.23,157h0A9.17,9.17,0,0,1,6,139.38L381.92,1.85A30.38,30.38,0,0,1,397.67.47Z"/><path class="cls-1" d="M564.5,295.36V447.5a8.84,8.84,0,0,1-10.75,8.63L31.45,340.61A8.83,8.83,0,0,1,24.52,332V182.4a8.84,8.84,0,0,1,10.71-8.64l522.3,113A8.84,8.84,0,0,1,564.5,295.36Z"/><path class="cls-1" d="M927,155.21V307.84a8.84,8.84,0,0,1-5.44,8.16L590.49,453.89a8.83,8.83,0,0,1-12.23-8.16V294.64a8.84,8.84,0,0,1,5.4-8.15L914.74,147.06A8.84,8.84,0,0,1,927,155.21Z"/><path class="cls-2" d="M48.06,328.42c-5.85-8.86-7-19.5-7.83-30v-8.65l19.87,4.36v10.4q0,14.73,10.89,17.13,5.36,1.17,8.12-1.79c1.85-2,2.77-5.64,2.77-11a40.78,40.78,0,0,0-3.82-17.64c-2.54-5.4-7.52-12.27-14.14-20.54s-13.66-17.37-18.15-27.47a60.41,60.41,0,0,1-5.16-24.82q0-18,8-26.08T72,187.55c10.06,2.18,17.65,7.22,22.83,14.8,6.1,9,7,19.52,7.74,30v6.29L82.65,234.3v-7.81q0-7.8-2.68-12a11.84,11.84,0,0,0-7.83-5.28Q61.62,207,61.63,221.49a36.56,36.56,0,0,0,3.92,16.23c2.61,5.34,7.59,12.18,14.23,20.44,6.78,8.44,13.81,17.4,18.15,27.61a61,61,0,0,1,5,26c-.35,8.89-1.07,19.72-8.12,26.83-5.41,5.45-13.5,6.7-23.6,4.75C62.94,341.8,52.74,335.5,48.06,328.42Z"/><path class="cls-2" d="M131.37,224.28l-22-4.77V197.82l65,14.06v21.73l-22-4.77V359.17l-21-4.64Z"/><path class="cls-2" d="M191.75,360.16c-6-8.89-7.21-19.59-8-30.15V213.9l21,4.55V336.37q0,7.85,2.77,11.93a12.4,12.4,0,0,0,7.93,5.23q5.16,1.14,7.93-1.74t2.77-10.71v-118l20.26,4.38V343.8c-.73,9.17-1.06,19.57-8,26.65-5.34,5.43-13.34,6.69-23.31,4.76C206.75,373.6,196.51,367.24,191.75,360.16Z"/><path class="cls-2" d="M261.31,230.69l32.1,6.94c8.55,1.36,18.7,7.6,23.51,14.69,6,8.79,7.05,19.45,7.83,29.87v77.32c-.7,9-.95,19.48-7.83,26.44-5.19,5.25-13.06,6.71-23.51,4.41l-32.1-7.1ZM293,368.45q5.16,1.14,7.93-1.74T303.73,356V276.53q0-7.86-2.77-11.95a12.28,12.28,0,0,0-7.93-5.21L282.33,257V366.1Z"/><path class="cls-2" d="M338.89,247.47l57.33,12.4v21.89l-36.31-7.88v40.45l28.86,6.3v21.88l-28.86-6.32v47l36.31,8v21.89l-57.33-12.68Z"/><path class="cls-2" d="M408.26,262.48l26.37,5.7q10.23,48.15,20.44,96.3l.38.09V272.69l18.73,4.05V430.32l-21.59-4.77Q440,366.78,427.36,308l-.38-.08v112l-18.72-4.14Z"/><path class="cls-2" d="M506.28,305.65l-22-4.77V278.93l65,14.06v22l-22-4.77V442.07l-21-4.65Z"/><path class="cls-2" d="M590.64,292.45c8.72-3.48,17.36-7.2,26-10.84q6,56.26,12,112.52l.49-.2q6.39-61.49,12.77-123l29.44-12.4L684.12,371l.49-.2,12-122.86L720,238.11,702.52,398.78l-33.62,14q-6.12-49.06-12.26-98.14l-.49.21L643.88,423.2l-35.82,14.92Q599.35,365.28,590.64,292.45Z"/><path class="cls-2" d="M733.68,232.32l27-11.36v153.6l-27,11.24Z"/><path class="cls-2" d="M780.79,212.48l27-11.36v64.82q17.18-39.63,34.35-79.29l27-11.36L837,245.35q16.32,41.91,32.62,83.84L841.39,341Q830,311.4,818.57,281.86c-4.32,9.64-6.48,14.45-10.79,24.08v49l-27,11.25Z"/><path class="cls-2" d="M882.36,169.71l27-11.37v154.3l-27,11.24Z"/><path class="cls-3" d="M452.62,237.32,54.88,151.73a5.34,5.34,0,0,1-.75-10.23l251.29-94c29.44-11,63.73-7,74.44,23.42a43.75,43.75,0,0,1,1.67,21.34c-8.17,52.33,40.09,62.41,90.76,104.5C491,212.29,476.33,242.42,452.62,237.32Z"/><path class="cls-4" d="M34.84,309.18V201a11.59,11.59,0,0,1,14.09-11.31L269,238.35c13.47,3,11.75,22.66-2,23.31C196.43,265,109.57,278,51.06,317.8A10.39,10.39,0,0,1,34.84,309.18Z"/><path class="cls-5" d="M934.56,122.08l-3.43,0-419.42,3c-3.66-4-15.28-6.94-29.07-6.94-16.71,0-30.26,4.31-30.26,9.63s13.55,9.63,30.26,9.63c15.19,0,27.76-3.56,29.93-8.2l416.49-2.94a2.06,2.06,0,0,1,2.07,2.06v29a2.07,2.07,0,0,0,2.07,2.06h1.37a2.07,2.07,0,0,0,2.07-2.06v-33.2A2.07,2.07,0,0,0,934.56,122.08Z"/><path class="cls-5" d="M944.22,220.62h-19.3a9.43,9.43,0,0,1-9.43-9.43v-20.6c0-11.34,8.54-28.75,19.08-28.75h0c10.54,0,19.09,17.41,19.09,28.75v20.59A9.47,9.47,0,0,1,944.22,220.62Z"/><circle class="cls-5" cx="934.57" cy="161.07" r="9.92"/><path class="cls-6" d="M924.92,220.62h19.3s9.27-1,9.44-9.44v-14.3S953.78,217.87,924.92,220.62Z"/></g></g></svg>